<?xml version="1.0" ?><!DOCTYPE svg  PUBLIC '-//W3C//DTD SVG 1.1//EN'  'http://www.w3.org/Graphics/SVG/1.1/DTD/svg11.dtd'><svg enable-background="new 0 0 24 24" height="24px" id="Layer_1" version="1.1" viewBox="0 0 24 24" width="24px" xml:space="preserve" xmlns="http://www.w3.org/2000/svg" xmlns:xlink="http://www.w3.org/1999/xlink"><g><path d="M12,0C5.4,0,0,5.4,0,12s5.4,12,12,12s12-5.4,12-12S18.6,0,12,0z M12,22C6.5,22,2,17.5,2,12S6.5,2,12,2s10,4.5,10,10   S17.5,22,12,22z"/><path d="M7.5,10h2C9.8,10,10,9.8,10,9.5S9.8,9,9.5,9h-2C7.2,9,7,9.2,7,9.5S7.2,10,7.5,10z"/><path d="M14.5,10h2c0.3,0,0.5-0.2,0.5-0.5S16.8,9,16.5,9h-2C14.2,9,14,9.2,14,9.5S14.2,10,14.5,10z"/><path d="M7,13H6c0,3.3,2.7,6,6,6s6-2.7,6-6h-1H7z M12,18c-2.4,0-4.4-1.7-4.9-4h9.8C16.4,16.3,14.4,18,12,18z"/></g></svg>