<?xml version="1.0" encoding="UTF-8" standalone="no"?>
<!-- Created with Inkscape (http://www.inkscape.org/) -->

<svg
   xmlns:dc="http://purl.org/dc/elements/1.1/"
   xmlns:cc="http://creativecommons.org/ns#"
   xmlns:rdf="http://www.w3.org/1999/02/22-rdf-syntax-ns#"
   xmlns:svg="http://www.w3.org/2000/svg"
   xmlns="http://www.w3.org/2000/svg"
   xmlns:sodipodi="http://sodipodi.sourceforge.net/DTD/sodipodi-0.dtd"
   xmlns:inkscape="http://www.inkscape.org/namespaces/inkscape"
   width="245.32449mm"
   height="94.041412mm"
   viewBox="0 0 869.26016 333.2176"
   id="svg2"
   version="1.1"
   inkscape:version="0.91 r13725"
   sodipodi:docname="drawing.svg">
  <defs
     id="defs4" />
  <sodipodi:namedview
     id="base"
     pagecolor="#ffffff"
     bordercolor="#666666"
     borderopacity="1.0"
     inkscape:pageopacity="0.0"
     inkscape:pageshadow="2"
     inkscape:zoom="0.35"
     inkscape:cx="-127.56972"
     inkscape:cy="138.24128"
     inkscape:document-units="px"
     inkscape:current-layer="layer1"
     showgrid="false"
     inkscape:window-width="1366"
     inkscape:window-height="705"
     inkscape:window-x="-8"
     inkscape:window-y="-8"
     inkscape:window-maximized="1"
     fit-margin-top="0"
     fit-margin-left="0"
     fit-margin-right="0"
     fit-margin-bottom="0" />
  <metadata
     id="metadata7">
    <rdf:RDF>
      <cc:Work
         rdf:about="">
        <dc:format>image/svg+xml</dc:format>
        <dc:type
           rdf:resource="http://purl.org/dc/dcmitype/StillImage" />
        <dc:title></dc:title>
      </cc:Work>
    </rdf:RDF>
  </metadata>
  <g
     inkscape:label="Layer 1"
     inkscape:groupmode="layer"
     id="layer1"
     transform="translate(-1.1411467,-216.91908)">
    <path
       style="fill:#000000;fill-opacity:1;fill-rule:nonzero;stroke:none;stroke-width:1px;stroke-linecap:butt;stroke-linejoin:miter;stroke-opacity:1"
       id="path3344"
       d="m 83.554153,403.46578 c -6.070248,-2.48381 -12.58384,-3.4211 -19.066566,-4.04817 -6.555027,1.13906 -12.943408,3.14315 -19.561889,4.22851 -13.202887,4.99369 -33.589667,18.32289 28.222279,-16.70023 6.239607,-3.53541 -5.725617,3.63678 -7.016885,4.60317 -6.424423,3.82393 -11.178576,9.23666 -16.051943,14.79016 -5.840038,6.45647 -8.971319,14.12553 -10.562092,22.55579 -0.960625,6.30849 -0.931341,12.70315 -0.911444,19.06676 0.424793,5.22076 1.36061,10.70304 4.722802,14.86601 3.837842,4.45898 8.973032,6.78125 14.368219,8.78744 6.797519,2.01412 13.892212,2.44397 20.934889,2.67773 6.592458,-0.0224 13.216338,0.50707 19.75942,-0.40483 3.485977,-1.13866 7.164307,-1.73616 10.445097,-3.45749 1.00197,-0.52571 3.82871,-2.41017 2.84223,-1.85595 -33.226795,18.66764 -43.423046,27.25344 -31.289338,17.27852 4.635154,-3.82069 7.416093,-8.99949 9.542338,-14.50708 2.043214,-6.46439 2.481711,-13.24522 2.732458,-19.97357 0.114792,-6.28747 0.140904,-12.57687 0.120076,-18.86537 -0.03708,-6.18969 -0.06971,-12.37939 -0.08703,-18.56917 0.103208,-6.46698 0.276064,-12.90887 -0.646328,-19.32156 -2.21561,-7.03425 -3.486269,-14.20902 -4.095667,-21.54854 -0.693942,-9.12196 -1.59814,-18.27492 -3.097479,-27.30398 -2.224788,-9.96581 -1.911236,-20.23243 -3.494847,-30.26892 -1.984078,-10.22783 -4.948145,-20.20944 -7.701245,-30.2445 -1.90739,-7.46858 -3.826417,-15.05282 -2.81123,-22.78032 1.023447,-5.66606 3.998187,-10.06185 7.461439,-14.48436 2.818968,-4.39864 4.85271,-9.22529 7.315267,-13.82094 0,0 38.375606,-17.24587 38.375606,-17.24587 l 0,0 c -2.48751,4.70989 -5.09916,9.32341 -7.19038,14.2426 -2.60471,4.50118 -6.91203,7.71527 -8.03351,13.08105 -2.55937,6.84237 0.12379,14.3413 1.32531,21.24668 2.55496,10.22323 5.99304,20.21094 7.79388,30.61919 1.76171,9.9688 1.52647,20.19473 3.78488,30.1133 1.5487,9.11988 2.31664,18.40875 3.19642,27.60904 0.71499,7.2148 1.87733,14.29583 4.2999,21.16131 1.04189,6.6021 1.07563,13.17007 0.98714,19.85053 -0.007,6.20336 -0.0218,12.40671 -0.0154,18.61007 0.0196,6.32728 0.15798,12.65485 -5.7e-4,18.98154 -0.22348,7.07685 -0.6556,14.17907 -2.34184,21.0843 -1.63818,6.10222 -4.16042,11.77212 -8.41774,16.52628 -15.15607,13.55638 -34.238642,25.36628 -54.625516,28.77059 -6.725885,0.3804 -13.477308,0.2627 -20.206209,-0.03 -7.338428,-0.4994 -14.704178,-1.33647 -21.674168,-3.8284 -6.002876,-2.50756 -11.628187,-5.46692 -15.8203397,-10.61818 -3.6002262,-5.10505 -5.2050166,-11.1092 -5.918635,-17.27739 -0.015522,-6.6145 -0.034816,-13.25172 0.8081852,-19.82535 1.4117832,-9.03791 4.0101719,-17.48041 9.8467525,-24.74794 4.832219,-5.50941 8.698049,-11.73205 15.1607,-15.43542 15.979997,-11.22076 32.003694,-24.72778 51.441999,-28.6593 6.718231,-1.33886 13.381227,-3.86778 20.306515,-3.2295 6.815226,0.94955 13.548486,2.37572 20.032806,4.72755 0,0 -35.188346,23.57421 -35.188346,23.57421 z"
       inkscape:connector-curvature="0" />
    <path
       style="fill:#000000;fill-opacity:1;fill-rule:nonzero;stroke:none;stroke-width:1px;stroke-linecap:butt;stroke-linejoin:miter;stroke-opacity:1"
       id="path3346"
       d="m 98.703075,490.81195 c 2.738425,-3.17151 4.315685,-6.97895 5.726175,-10.86339 0,0 37.85025,-17.90349 37.85025,-17.90349 l 0,0 c -1.04527,4.19831 -2.39263,8.25859 -4.64628,11.99043 0,0 -38.930145,16.77645 -38.930145,16.77645 z"
       inkscape:connector-curvature="0" />
    <path
       style="fill:#000000;fill-opacity:1;fill-rule:nonzero;stroke:none;stroke-width:1px;stroke-linecap:butt;stroke-linejoin:miter;stroke-opacity:1"
       id="path3348"
       d="m 136.26685,451.80097 c 2.7455,6.00563 5.58524,11.78595 9.25344,17.27999 0,0 -36.09157,21.15096 -36.09157,21.15096 l 0,0 c -0.33169,-0.49722 -4.08948,-6.11661 -4.31976,-6.51915 -2.03749,-3.56164 -3.10406,-7.66741 -5.723044,-10.91237 0,0 36.880934,-20.99943 36.880934,-20.99943 z"
       inkscape:connector-curvature="0" />
    <path
       style="fill:#000000;fill-opacity:1;fill-rule:nonzero;stroke:none;stroke-width:1px;stroke-linecap:butt;stroke-linejoin:miter;stroke-opacity:1"
       id="path3350"
       d="m 215.19055,401.2782 c -7.30888,-1.24616 -14.75126,-2.2391 -22.15989,-1.63709 -4.40219,1.49317 -8.8296,2.62748 -12.93912,4.87567 -1.45809,0.79767 -5.66569,3.47504 -4.21732,2.65986 30.35076,-17.08219 41.40161,-24.86518 26.63585,-14.71177 -7.0604,4.88471 -11.73392,11.73414 -15.61717,19.22047 -3.34019,6.49199 -4.44401,13.60891 -5.05065,20.78965 -0.21029,6.20232 -0.68707,12.4638 -0.0963,18.65303 1.48575,3.9666 4.34594,7.797 7.25251,10.92235 4.16484,4.65196 9.70435,6.94449 15.63551,8.37088 5.8869,2.25451 11.57053,4.69093 17.79703,5.87736 5.60885,0.85963 11.29783,0.86643 16.95798,0.89794 0.94858,3.3e-4 1.90176,0.0942 2.84575,9.9e-4 3.1569,-0.31174 11.9054,-5.39201 7.98607,-3.16279 -33.8184,19.23503 -43.8375,25.86097 -30.20919,16.96348 6.19112,-4.80554 11.10415,-11.00935 15.56377,-17.39715 3.66393,-6.04572 6.05959,-12.67754 7.49615,-19.57012 0.66439,-5.36374 2.11475,-11.11167 -0.39823,-16.1365 -2.68292,-6.04652 -7.08224,-10.9287 -11.76482,-15.49183 -5.11469,-3.93645 -9.04306,-9.33446 -12.86281,-14.51057 -1.4677,-1.99284 -5.07299,-9.70762 -1.736,-11.71019 12.53899,-7.52478 25.44936,-14.41264 38.17404,-21.61896 6.06566,-0.14738 11.98329,-0.40795 17.96736,-1.41636 2.7584,-1.14813 5.57271,-2.15124 8.38302,-3.16226 0,0 -33.0496,25.79135 -33.0496,25.79135 l 0,0 c -2.91931,1.03821 -5.81761,2.16818 -8.91928,2.54133 -5.88736,0.76849 -12.05633,0.27861 -17.67549,2.37186 11.50256,-6.73194 23.1339,-13.24851 34.50767,-20.19583 0.84131,-0.51388 -2.21153,-0.0806 -2.88822,0.63635 -1.41176,1.49563 0.83601,4.18954 1.42026,5.32827 3.70067,5.0187 7.4436,10.14806 12.37153,14.03239 4.96153,4.9248 9.59299,10.21591 12.64131,16.57493 3.36578,6.68748 2.43322,11.41807 1.57905,18.60728 -1.25469,7.41162 -3.66869,14.38417 -6.94863,21.15329 -4.2538,6.79359 -9.32847,12.99658 -14.91034,18.74791 -15.4092,12.43746 -33.25296,26.56676 -53.64843,26.31021 -5.84185,-0.124 -11.7213,-0.31383 -17.44017,-1.6338 -6.13056,-1.59539 -11.83849,-4.24962 -17.88104,-6.10922 -6.42257,-2.12046 -12.44308,-5.20749 -17.09081,-10.25303 -3.38161,-3.92472 -6.78156,-8.30174 -8.37541,-13.2547 -0.8502,-6.43719 -0.39771,-12.9528 -0.16598,-19.42548 0.54256,-7.58224 1.31064,-15.22733 4.45962,-22.24748 3.67602,-8.05879 8.17359,-15.67401 15.23053,-21.27222 16.324,-12.47412 4.60543,-3.79988 44.09565,-26.59554 5.69052,-3.28484 12.06564,-5.31872 18.5717,-6.11102 7.79505,0.0553 15.53313,0.96404 23.24521,2.06725 0,0 -34.77269,24.22981 -34.77269,24.22981 z"
       inkscape:connector-curvature="0" />
    <path
       style="fill:#006600;fill-opacity:1"
       id="path4152"
       d="m 310.52373,234.87478 c 5.76675,2.97857 12.11533,3.91836 18.48444,4.57181 9.40511,0.20568 18.70441,1.33437 28.05719,2.24072 9.8163,0.32031 19.48738,1.97192 29.22262,3.11524 6.53114,0.73846 13.10659,0.87673 19.67223,0.95651 6.31682,0.0371 12.63376,-0.004 18.95057,-0.024 5.77675,-0.0179 11.55354,-0.0218 17.33032,-0.0243 5.81022,0.007 11.62054,-0.0242 17.43059,0.0263 6.86329,0.003 13.72645,0.037 20.58974,0.0271 6.22316,0.60064 11.54386,-0.49118 17.52934,-1.69982 0,0 -33.63452,25.4363 -33.63452,25.4363 l 0,0 c -5.89332,1.09819 -11.80517,1.01919 -17.78731,0.88783 -6.88805,-0.01 -13.77597,0.0243 -20.66402,0.0268 -5.83474,0.0495 -11.66973,0.0201 -17.50464,0.0295 -5.7668,0.002 -11.53361,0.006 -17.30041,0.008 -6.30304,-9.8e-4 -12.60643,-3.9e-4 -18.90889,-0.0975 -6.63043,-0.13183 -13.26014,-0.41308 -19.82449,-1.43646 -9.5627,-1.38829 -19.1088,-2.8005 -28.77756,-3.23298 -9.47951,-0.8239 -18.95295,-1.48736 -28.44752,-2.08723 -6.59212,-0.8549 -12.86892,-2.49403 -19.19036,-4.49473 0,0 34.77268,-24.22981 34.77268,-24.22981 z"
       inkscape:connector-curvature="0" />
    <path
       style="fill:#006600;fill-opacity:1"
       id="path4154"
       d="m 350.8417,294.09918 c 2.96497,3.82445 5.72313,7.75555 9.00228,11.31463 0,0 -35.62847,21.65833 -35.62847,21.65833 l 0,0 c -3.30329,-3.51606 -6.07327,-7.41801 -9.46596,-10.85566 0,0 36.09215,-22.1173 36.09215,-22.1173 z"
       inkscape:connector-curvature="0" />
    <path
       style="fill:#006600;fill-opacity:1"
       id="path4156"
       d="m 393.14209,305.61806 c 6.86836,0.19092 13.74197,0.18001 20.61269,0.16773 4.82745,-0.0164 2.4421,-0.008 7.15605,-0.0263 0,0 -33.90567,24.63391 -33.90567,24.63391 l 0,0 c -4.66454,-0.0186 -2.30328,-0.01 -7.08378,-0.0263 -7.0247,-0.0126 -14.05189,-0.0182 -21.07441,0.16773 0,0 34.29512,-24.91686 34.29512,-24.91686 z"
       inkscape:connector-curvature="0" />
    <path
       style="fill:#006600;fill-opacity:1"
       id="path4158"
       d="m 373.14209,299.90377 c 6.70104,-0.31544 13.22346,0.78575 19.83135,1.67477 6.7499,0.86488 13.55249,1.11968 20.34943,1.24925 5.84557,-0.22144 11.56224,0.40431 16.69248,3.3474 1.06859,1.63557 2.89558,5.63291 0.34902,7.16081 -26.46299,15.87748 -25.59452,20.43521 -43.51028,22.39304 -4.84162,0.42669 -9.70553,0.44966 -14.56196,0.47731 0,0 33.99542,-24.76662 33.99542,-24.76662 l 0,0 c 4.75094,-0.0967 9.5303,-0.1843 14.21564,-1.06296 1.61742,-0.39855 6.19427,-2.36297 4.76425,-1.50861 -67.98559,40.6181 -44.21016,16.28609 -30.66398,20.50137 -4.79308,-2.20533 -10.19513,-1.75238 -15.34014,-1.94742 -6.84319,-0.26844 -13.67674,-0.75169 -20.4648,-1.68852 -6.6357,-0.84803 -13.25209,-1.4157 -19.95155,-0.91295 0,0 34.29512,-24.91687 34.29512,-24.91687 z"
       inkscape:connector-curvature="0" />
    <path
       style="fill:#006600;fill-opacity:1"
       id="path4160"
       d="m 344.99456,344.91468 c 4.89845,3.77964 11.04586,4.61282 16.76885,6.41605 0,0 -34.65263,23.67494 -34.65263,23.67494 l 0,0 c -6.2772,-1.75885 -12.52718,-3.64643 -17.94266,-7.43107 0,0 35.82644,-22.65992 35.82644,-22.65992 z"
       inkscape:connector-curvature="0" />
    <path
       style="fill:#006600;fill-opacity:1"
       id="path4162"
       d="m 378.85638,357.04663 c 7.01267,0.217 14.0305,0.18539 21.04571,0.16347 5.47665,-0.0238 10.95331,-0.0444 16.42999,-0.0578 0,0 -34.00417,24.70548 -34.00417,24.70548 l 0,0 c -5.42367,-0.0133 -10.84731,-0.0339 -16.27095,-0.0578 -7.16528,-0.0226 -14.33276,-0.0474 -21.4957,0.16346 0,0 34.29512,-24.91686 34.29512,-24.91686 z"
       inkscape:connector-curvature="0" />
    <path
       style="fill:#006600;fill-opacity:1"
       id="path4164"
       d="m 350.58901,385.64545 c 6.94641,0.93151 11.87533,4.93819 16.13296,10.19549 0,0 -36.03287,21.63114 -36.03287,21.63114 l 0,0 c -3.81268,-4.4409 -8.20201,-7.30591 -14.3198,-6.96455 0,0 34.21971,-24.86208 34.21971,-24.86208 z"
       inkscape:connector-curvature="0" />
    <path
       style="fill:#006600;fill-opacity:1"
       id="path4166"
       d="m 379.16044,402.78831 c 8.44359,-0.72978 16.72832,-2.26126 25.06646,-3.73747 3.73184,-0.67566 7.50148,-1.06712 11.27319,-1.4282 0,0 -33.65158,24.98924 -33.65158,24.98924 l 0,0 c -3.64658,0.41492 -7.28975,0.8601 -10.90395,1.50957 -8.62186,1.48157 -17.27115,2.90085 -26.00384,3.52894 0,0 34.21972,-24.86208 34.21972,-24.86208 z"
       inkscape:connector-curvature="0" />
    <path
       style="fill:#006600;fill-opacity:1"
       id="path4168"
       d="m 367.66559,401.38192 c 5.24823,2.51654 11.04162,3.33833 16.77027,3.92206 0,0 -34.28325,24.25923 -34.28325,24.25923 l 0,0 c -6.15469,-0.91536 -12.24745,-2.26046 -17.94124,-4.85367 0,0 35.45422,-23.32762 35.45422,-23.32762 z"
       inkscape:connector-curvature="0" />
    <path
       style="fill:#006600;fill-opacity:1"
       id="path4170"
       d="m 361.95131,444.23907 c 0.68452,0.29974 1.36905,0.59949 2.05358,0.89923 0,0 -35.10375,23.41621 -35.10375,23.41621 l 0,0 c -0.80135,-0.32928 -1.6027,-0.65855 -2.40405,-0.98783 0,0 35.45422,-23.32761 35.45422,-23.32761 z"
       inkscape:connector-curvature="0" />
    <path
       style="fill:#006600;fill-opacity:1"
       id="path4172"
       d="m 338.70307,473.66909 c 3.16171,-3.9284 7.14581,-7.32964 11.51364,-9.86935 39.24435,-22.81893 25.02083,-18.34592 43.06581,-23.63508 6.58507,0.39847 11.10113,5.8727 17.81136,5.15845 17.40492,-8.72852 -46.59154,27.00548 -30.59621,17.04101 0,0 38.93597,-16.36662 38.93597,-16.36662 l 0,0 c -8.07816,14.34059 -26.09106,24.07599 -42.53173,23.88293 -5.93959,-1.11086 -10.67237,-5.39122 -16.62496,-3.93435 -14.36362,6.373 -4.09101,1.95246 28.77022,-17.2288 1.25239,-0.73103 -2.53422,1.41381 -3.75746,2.19265 -2.72828,1.73713 -5.35323,3.70748 -7.65649,5.98271 0,0 -38.93015,16.77645 -38.93015,16.77645 z"
       inkscape:connector-curvature="0" />
    <path
       style="fill:#006600;fill-opacity:1"
       id="path4174"
       d="m 301.71352,257.04663 c 5.59061,1.58445 11.39356,2.17138 17.16867,2.59777 7.41919,1.87286 15.12063,1.95348 22.59602,3.40229 7.78919,1.6761 15.74424,2.21108 23.68439,2.54048 7.7951,0.22185 15.59479,0.25217 23.39261,0.26634 7.28901,-0.02 14.57779,-0.0817 21.86674,-0.11477 6.11038,-0.0472 12.22057,-0.009 18.33087,0.009 6.33061,0.002 12.6612,-0.0171 18.99179,-0.0269 5.87752,0.1465 11.63859,1.64203 17.50005,2.26978 5.64939,0.51441 11.32647,0.55404 16.99461,0.59118 0,0 -34.07052,24.69397 -34.07052,24.69397 l 0,0 c -5.76244,-0.0944 -11.53556,-0.23919 -17.25928,-0.9719 -5.70805,-0.78278 -11.38086,-2.12354 -17.17756,-1.87141 -6.30578,-0.01 -12.61154,-0.0292 -18.91732,-0.0268 -6.12215,0.0182 -12.24418,0.0581 -18.36644,0.0218 -7.20779,-0.019 -14.41551,-0.055 -21.6233,-0.0714 -7.8652,10e-4 -15.73716,0.0697 -23.59308,-0.39146 -8.05896,-0.52454 -16.1002,-1.29578 -24.02718,-2.90067 -7.49144,-1.12257 -15.0417,-1.88706 -22.53417,-3.01932 -5.76811,-0.58865 -11.47444,-1.75554 -17.25202,-2.08091 0,0 34.29512,-24.91686 34.29512,-24.91686 z"
       inkscape:connector-curvature="0" />
    <path
       style="fill:#006600;fill-opacity:1"
       id="path4176"
       d="m 373.7575,473.3231 c 3.49913,1.93774 1.63787,1.00397 5.6038,2.76105 0,0 -34.90197,23.17642 -34.90197,23.17642 l 0,0 c -4.3197,-1.95657 -2.2461,-0.96783 -6.22776,-2.95153 0,0 35.52593,-22.98594 35.52593,-22.98594 z"
       inkscape:connector-curvature="0" />
    <path
       style="fill:#006600;fill-opacity:1"
       id="path4178"
       d="m 483.39264,413.33728 c -8.74429,-0.78025 -15.11944,0.0315 -23.46483,2.41238 -1.01196,0.49861 -2.02031,1.00459 -3.03587,1.49582 -6.6287,3.20638 0.88577,-0.60277 -5.39709,2.90889 -0.86489,0.48341 -3.50648,1.84489 -2.64871,1.34897 36.14114,-20.89502 44.26272,-26.6237 31.47566,-17.75511 -4.91384,4.41414 -10.15655,8.51446 -14.68392,13.33339 -4.162,4.76048 -5.76707,10.5527 -6.57341,16.6687 -0.13308,5.34857 -1.18334,10.99254 0.0432,16.25825 2.67388,6.42689 7.69003,11.49773 12.37607,16.50946 5.1999,5.48357 10.11433,11.20866 17.18325,14.20432 7.43616,2.18572 15.24992,2.24221 22.93641,2.32524 3.34393,-0.26135 6.7851,0.30473 10.12222,-0.0637 2.80315,-0.30945 5.52626,-1.76981 8.15125,-2.70605 13.98206,-6.89451 7.9797,-4.00305 -30.62628,17.60138 -0.89553,0.50115 1.73764,-1.09603 2.56153,-1.70786 2.80758,-2.08489 4.7499,-4.36386 6.68151,-7.2455 3.66286,-6.98248 4.10997,-14.77888 3.60188,-22.48694 -0.54654,-8.52997 -5.02671,-15.40252 -9.55619,-22.31538 -3.68317,-6.52281 -8.53017,-12.20054 -12.56486,-18.49502 -3.6124,-4.51243 -7.50265,-8.76088 -11.36716,-13.04729 -11.94022,-16.48765 25.28914,-29.25573 38.49456,-29.72762 6.26693,-0.1921 12.53822,-0.0386 18.80661,-9e-4 3.59331,0.0161 7.18667,0.016 10.78001,0.0166 0,0 -33.92423,24.62733 -33.92423,24.62733 l 0,0 c -3.56663,-0.0272 -7.13325,-0.0575 -10.69998,-0.0675 -6.24167,0.007 -12.55927,-0.16615 -18.7336,0.8688 -14.88444,5.02991 2.28208,-0.62873 32.91284,-19.63857 0.96742,-0.60039 -3.21218,-1.0396 -2.60854,0.52548 0.22439,0.58179 0.65551,1.06096 0.98326,1.59144 3.99704,4.46055 8.02423,8.90934 11.62135,13.7036 3.98665,6.30005 8.53666,12.18489 12.37487,18.58257 4.76482,7.53645 9.52686,15.04106 10.50476,24.15527 0.72073,8.36171 0.61674,16.64993 -2.35565,24.64179 -1.10163,2.27037 -1.97985,4.4081 -3.57894,6.39952 -0.2967,0.36949 -4.27473,4.17647 -4.74398,4.45465 -36.29249,21.51559 -24.97337,17.1428 -41.74747,23.33529 -6.23571,1.91546 -12.50924,1.85259 -18.995,1.50281 -8.10889,-0.31799 -16.38728,-0.6473 -23.99341,-3.77621 -7.07517,-3.85224 -12.41675,-9.74247 -17.90357,-15.55592 -5.16512,-5.5249 -10.4975,-11.12847 -13.71184,-18.06914 -1.75092,-5.70363 -0.77438,-11.80987 -0.69563,-17.7191 0.59273,-6.7183 1.80026,-13.32235 5.70623,-19.00219 4.096,-5.39326 9.40169,-9.23452 14.15046,-14.00878 14.08014,-12.7939 33.52103,-22.36782 51.87629,-29.08811 8.06548,-1.83923 16.16842,-1.79265 24.41026,-1.8024 0,0 -34.14431,24.80729 -34.14431,24.80729 z"
       inkscape:connector-curvature="0" />
    <path
       style="fill:#006600;fill-opacity:1"
       id="path4180"
       d="m 601.70099,264.81136 c -0.57484,10.50573 -0.47982,21.02846 -0.4574,31.54484 0.34498,9.28211 1.7057,18.48145 2.53369,27.72548 0.52516,6.09489 0.63347,12.21293 0.6888,18.3266 -0.0916,6.36646 1.19054,12.64222 1.92611,18.94528 0.63645,5.92881 0.57902,11.87507 1.55699,17.76263 1.30117,6.16816 1.67614,12.44713 1.9558,18.72652 0.23719,6.21406 0.26284,12.43333 0.27943,18.65106 0.007,5.75026 -10e-4,11.50053 -0.005,17.25079 -0.004,5.70864 -0.004,11.41728 -0.005,17.12592 0.0507,6.55729 -0.0659,13.11306 -0.15743,19.66935 0.003,7.81792 0.0362,15.63553 0.0485,23.45341 -0.0641,7.32309 0.0153,14.64646 0.0587,21.96946 -0.17324,6.41114 -0.006,7.94272 6.24775,9.25985 5.86141,1.3491 11.17944,-0.5824 16.66414,-2.39441 3.00127,-1.19125 5.55651,-3.15229 8.46519,-4.53214 0.96831,-0.45936 3.88441,-1.79836 2.95891,-1.25794 -49.80595,29.08288 -42.55325,24.66846 -30.24912,17.10505 5.40961,-3.44769 10.10627,-7.95371 13.97935,-13.04805 3.67148,-6.91626 7.96213,-13.45935 12.03994,-20.13826 5.09922,-7.74688 10.19782,-15.5092 14.3076,-23.83661 3.53585,-6.75733 5.71568,-14.0463 7.47659,-21.43217 1.9258,-9.28207 2.14415,-18.78755 2.28821,-28.23102 0.0455,-7.33479 -0.0642,-14.66927 -0.12686,-22.00364 0.1916,-7.2641 0.26267,-14.37285 -1.30834,-21.48663 -2.04621,-8.10086 -5.31363,-15.83136 -7.33449,-23.92634 -1.59006,-9.17796 -4.66075,-17.87754 -7.70043,-26.63859 -2.67461,-5.35254 -4.54975,-11.0086 -6.47559,-16.65553 -1.95149,-6.24554 -3.62656,-12.54882 -4.71099,-19.0029 0,0 37.10699,-19.63195 37.10699,-19.63195 l 0,0 c 0.88662,6.2631 2.47246,12.3116 4.46766,18.30991 1.90704,5.67603 3.74806,11.36608 6.17894,16.84977 2.8176,8.92377 5.95053,17.72158 7.82488,26.91598 2.07216,8.10429 5.05201,15.95676 7.37245,23.995 0.37357,1.53212 1.73492,6.92043 1.91768,8.4637 0.53536,4.52068 -0.35005,9.19321 0.0848,13.72693 -0.0241,7.43052 -0.0778,14.86115 -0.23945,22.29016 -0.21407,9.63534 -0.24715,19.35004 -1.79804,28.88179 -1.46205,7.64286 -3.37342,15.33806 -6.99918,22.26696 -3.8801,8.5915 -9.08377,16.50833 -14.31396,24.33016 -1.54208,2.52519 -2.87931,5.17195 -4.42688,7.69378 -2.49951,4.07304 -5.68287,7.78639 -7.16736,12.42997 -3.40079,5.78593 -8.17596,10.47467 -13.33402,14.73542 -17.27671,10.67954 -34.58992,22.02706 -53.53021,29.52222 -6.05551,1.70637 -12.12041,2.3785 -18.23641,0.41623 -6.99219,-2.78332 -9.26801,-6.34346 -8.82134,-13.92474 0.0433,-7.34294 0.1227,-14.68625 0.0587,-22.02928 0.0123,-7.83432 0.046,-15.66838 0.0484,-23.50274 -0.0921,-6.5029 -0.209,-13.00526 -0.15743,-19.50918 6e-5,-5.70946 -4e-5,-11.41893 0.003,-17.12839 0.004,-5.75292 0.0125,-11.50583 0.029,-17.25873 0.0142,-6.18365 0.047,-12.36861 -0.10864,-18.5509 -0.2151,-6.09275 -0.59582,-12.18918 -1.79497,-18.18122 -1.09262,-5.98857 -1.27862,-11.9654 -1.61618,-18.03899 -0.64389,-6.44223 -1.99908,-12.82339 -2.2088,-19.28196 -0.0171,-6.05759 -0.0469,-12.11802 -0.37059,-18.16869 -0.55535,-9.43689 -1.55596,-18.83717 -2.14499,-28.27165 0.022,-10.36088 0.12789,-20.72904 -0.45741,-31.07872 0,0 37.6877,-19.20285 37.6877,-19.20285 z"
       inkscape:connector-curvature="0" />
    <path
       style="fill:#006600;fill-opacity:1"
       id="path4182"
       d="m 646.30115,304.91094 c -4.40228,-4.53105 -8.86098,-8.3324 -14.97114,-10.17532 -7.10445,-2.03529 -14.26658,-3.96183 -21.48155,-5.59351 -6.11822,-1.28737 -12.37797,-1.46935 -18.60514,-1.59806 -6.33036,-0.0734 -12.6613,-0.0199 -18.9918,0.007 -3.91909,0.0139 -1.96518,0.008 -5.86172,0.0187 0,0 34.025,-24.73132 34.025,-24.73132 l 0,0 c 3.8854,-0.005 1.93739,-0.003 5.84401,-0.007 6.32844,-0.002 12.658,-0.0107 18.98479,0.15485 6.42686,0.22466 12.85628,0.6576 19.09937,2.33126 7.27938,1.89567 14.59918,3.67662 21.76746,5.9593 6.32209,2.64819 11.20064,7.00531 16.28288,11.51714 0,0 -36.09216,22.1173 -36.09216,22.1173 z"
       inkscape:connector-curvature="0" />
    <path
       style="fill:#009900;fill-opacity:1"
       id="path4184"
       d="m 747.11084,416.92422 c -0.87435,0.11616 -1.76709,0.13555 -2.62303,0.34847 -1.92403,0.47861 -3.73196,1.3491 -5.63765,1.89621 -3.00414,0.86248 -5.98976,1.3926 -8.95233,2.40464 1.98202,-2.51503 -11.90073,5.59102 -8.55401,3.68499 59.61432,-33.95166 39.07828,-25.68691 29.20326,-15.18406 -4.23731,5.01142 -8.61317,9.8396 -13.62582,14.08383 -3.88747,3.51069 -8.08963,6.53822 -10.54159,11.25539 -2.17684,6.24476 -2.01417,13.00975 -2.07781,19.54388 -0.18796,5.40894 0.10755,10.84474 1.91618,15.98229 1.44384,5.49556 5.85696,7.7624 10.19468,10.72077 5.74085,4.01876 11.2229,8.21151 17.54668,11.37168 6.41776,2.45624 12.91953,4.76086 19.68447,6.05281 5.62603,0.6503 11.44542,1.51461 17.04819,0.42342 13.06794,-5.92283 32.18309,-16.98643 -28.23138,16.41451 -0.80425,0.44464 1.51951,-1.05038 2.1737,-1.69579 1.87306,-1.84792 1.95788,-2.56398 3.0835,-4.92131 2.22736,-6.83819 2.2248,-14.13651 2.32278,-21.25801 0.0639,-7.80835 0.008,-15.61808 -0.0648,-23.42642 0.72646,-8.80663 -1.7636,-16.70397 -5.33933,-24.62736 -3.7884,-6.86577 -7.97573,-13.07569 -14.6432,-17.32991 -5.73814,-4.04574 -12.59316,-5.51633 -19.26484,-7.26752 -3.93942,-1.24474 -11.57766,-0.66456 -13.63122,-5.36141 -0.44161,-1.01005 -0.41656,-2.16503 -0.62484,-3.24754 7.57683,-16.23453 37.41108,-25.48083 56.57321,-30.34224 8.82657,-1.7649 17.85433,-1.8646 26.81873,-2.03994 0,0 -33.60582,24.53655 -33.60582,24.53655 l 0,0 c -8.82574,0.24146 -17.73149,0.61715 -26.3075,2.90906 -4.14017,1.19006 -8.30476,2.4032 -12.31804,3.98309 -1.29292,0.50898 -4.99473,2.41259 -3.81712,1.67509 27.96365,-17.51275 44.38722,-25.46468 31.01478,-18.93967 -0.47187,-0.16016 -0.9186,-0.51659 -1.41559,-0.48048 -0.94173,0.0684 1.57605,1.08886 2.47496,1.37784 1.5853,0.50962 4.43558,1.01003 5.96812,1.36631 1.13785,0.26452 2.26501,0.57311 3.39752,0.85966 7.04682,2.00382 14.08755,3.92033 20.02826,8.45009 6.94532,5.10458 11.55363,11.80808 15.441,19.47351 3.81169,8.2768 7.36063,16.69838 6.5137,25.99944 -0.009,7.82593 0.0581,15.65163 0.0947,23.47744 -0.048,7.52582 -0.0892,15.09486 -1.55143,22.51106 -0.60661,2.06962 -1.21049,4.58948 -2.30166,6.48865 -8.90742,15.50324 -29.38871,22.75579 -46.56689,26.49886 -5.9627,0.1449 -11.94913,-0.27638 -17.78487,-1.56656 -6.8845,-1.74134 -13.64345,-4.10647 -20.08085,-7.10539 -6.33881,-3.43072 -12.13839,-7.56972 -18.08297,-11.61962 -4.9563,-3.39338 -9.85291,-6.85348 -11.68722,-12.89983 -2.04917,-5.59018 -2.61334,-11.52912 -2.32416,-17.45932 0.069,-6.9455 -0.0121,-13.94765 1.14999,-20.81688 1.7652,-5.82469 5.13882,-9.40904 9.86903,-13.10903 4.75143,-4.39227 9.97873,-8.22809 13.8847,-13.49934 12.03376,-16.27737 32.31816,-24.60456 51.29777,-30.61219 5.91774,-1.52724 11.74168,-3.39527 17.74536,-4.56308 0,0 -33.78926,25.58336 -33.78926,25.58336 z"
       inkscape:connector-curvature="0" />
    <path
       style="fill:#000000;fill-opacity:1;fill-rule:evenodd;stroke:#000000;stroke-width:1px;stroke-linecap:butt;stroke-linejoin:miter;stroke-opacity:1"
       d="m 748.57143,449.50506 c -1.90476,-3.80952 -3.15878,-8.02123 -5.71429,-11.42857 -0.57143,-0.7619 -1.90476,0 -2.85714,0 -3.80952,0 -7.61905,0 -11.42857,0"
       id="path4186"
       inkscape:connector-curvature="0" />
    <path
       style="fill:#000000;fill-opacity:1;fill-rule:evenodd;stroke:#000000;stroke-width:1px;stroke-linecap:butt;stroke-linejoin:miter;stroke-opacity:1"
       d="m 771.42857,446.64792 c 1.4601,11.07003 -10.85185,-6.291 -14.28571,-2.85714 -0.67344,0.67343 0,1.90476 0,2.85714 0,0.95238 -0.42592,2.00531 0,2.85714 5.99247,11.98495 1.26148,-15.88137 14.28571,-2.85714 3.01169,3.01169 -4.68128,7.29656 -5.71428,11.42857 -0.23099,0.92395 1.90476,0 2.85714,0 5.71428,0 11.42857,0 17.14286,0"
       id="path4188"
       inkscape:connector-curvature="0" />
    <path
       style="fill:#000000;fill-opacity:1;fill-rule:evenodd;stroke:#000000;stroke-width:1px;stroke-linecap:butt;stroke-linejoin:miter;stroke-opacity:1"
       d="m 725.71429,478.07649 c 0,3.80952 0,7.61905 0,11.42857 0.95238,0 2.1837,-0.67343 2.85714,0 0.67343,0.67344 -0.42592,2.00531 0,2.85714 0.60234,1.20468 2.2548,1.65247 2.85714,2.85715 1.14286,2.28571 -1.14286,6.28571 0,8.57143 0.42592,0.85183 2.18371,-0.67344 2.85714,0 0.67344,0.67343 -0.42591,2.0053 0,2.85714 0.60234,1.20468 2.43123,1.57939 2.85715,2.85714 0.60234,1.80702 0,3.80953 0,5.71429 0,0.95238 -0.42592,2.00531 0,2.85714 1.49034,2.98068 6.91018,4.51839 5.71428,5.71429 -0.95238,0.95238 -3.80952,-3.80953 -2.85714,-2.85715 6.38772,6.38772 3.02055,5.71429 8.57143,5.71429 0.95238,0 2.06471,0.52828 2.85714,0 14.21393,-9.47595 0.65652,-1.31303 5.71429,-11.42857 0.42591,-0.85184 2.0053,0.42592 2.85714,0 1.20468,-0.60234 1.90476,-1.90476 2.85714,-2.85715 0.95238,-0.95238 2.25481,-1.65246 2.85715,-2.85714 0.42591,-0.85183 -0.67344,-2.18371 0,-2.85714 1.50584,-1.50585 3.94236,-1.67586 5.71428,-2.85714 5.88775,-3.92517 -0.18822,-5.62018 5.71429,-8.57143 3.94102,-1.97051 2.55563,3.46015 5.71428,-2.85715 0.42592,-0.85183 -0.42591,-2.0053 0,-2.85714 1.20468,-2.40935 4.22007,-3.47296 5.71429,-5.71428 1.18128,-1.77193 1.35129,-4.20844 2.85714,-5.71429 0.67344,-0.67343 2.18371,0.67344 2.85714,0 5.91153,-5.91153 -9.0336,0.23109 2.85715,-5.71429 0.85183,-0.42591 2.1837,0.67344 2.85714,0 0.67344,-0.67343 -0.42592,-2.0053 0,-2.85714 0.60234,-1.20468 2.2548,-1.65246 2.85714,-2.85714 0.42592,-0.85184 -0.67343,-2.18371 0,-2.85714 0.67344,-0.67344 2.00531,0.42591 2.85715,0 6.3173,-3.15865 0.88663,-1.77327 2.85714,-5.71429 5.94537,-11.89074 -0.19725,3.05439 5.71428,-2.85714 0.67344,-0.67344 -0.42591,-2.00531 0,-2.85715 5.94538,-11.89074 -0.19724,3.05439 5.71429,-2.85714 8.04497,-0.17735 0.72755,-6.44184 2.85714,-8.57143 1.50585,-1.50584 3.80953,-1.90476 5.71429,-2.85714"
       id="path4192"
       inkscape:connector-curvature="0" />
    <path
       style="fill:#000000;fill-opacity:1;fill-rule:evenodd;stroke:#000000;stroke-width:1px;stroke-linecap:butt;stroke-linejoin:miter;stroke-opacity:1"
       d="m 705.71429,443.79078 c 6.56612,13.13224 5.71428,7.16939 5.71428,17.14285 0,0.95238 -0.67343,2.18371 0,2.85715 0.67344,0.67343 2.18371,-0.67344 2.85714,0 11.15067,11.15067 -0.66135,1.53442 2.85715,8.57142 1.63774,3.27548 5.96146,3.97431 8.57143,5.71429 7.10696,4.73798 0.32825,0.65651 2.85714,5.71429 1.49034,2.98068 6.91018,4.51838 5.71428,5.71428 -0.95238,0.95238 -3.80952,-3.80952 -2.85714,-2.85714 1.90476,1.90476 3.80953,3.80952 5.71429,5.71428"
       id="path4194"
       inkscape:connector-curvature="0" />
    <path
       style="fill:#000000;fill-opacity:1;fill-rule:evenodd;stroke:#000000;stroke-width:1px;stroke-linecap:butt;stroke-linejoin:miter;stroke-opacity:1"
       d="m 708.57143,458.07649 c 3.39396,7.86854 2.85714,14.76557 2.85714,22.85714 0,0.95238 0,1.90477 0,2.85715 0,0.95238 -0.42592,2.0053 0,2.85714 0.60234,1.20468 2.43123,1.57939 2.85714,2.85714 0.60234,1.80702 -0.60233,3.90727 0,5.71429 0.42592,1.27775 1.90477,1.90476 2.85715,2.85714 0.95238,0.95238 1.65246,2.2548 2.85714,2.85714 0.85184,0.42592 2.00531,-0.42591 2.85714,0 2.40936,1.20468 3.15878,4.86245 5.71429,5.71429 4.37816,1.45939 17.68642,-1.93171 20,-2.85714 0.93569,-0.37428 7.4629,-7.46291 8.57143,-8.57143"
       id="path4196"
       inkscape:connector-curvature="0" />
    <path
       style="fill:none;fill-rule:evenodd;stroke:#000000;stroke-width:1px;stroke-linecap:butt;stroke-linejoin:miter;stroke-opacity:1"
       d="m 788.57143,463.79078 c 3.80952,-1.90477 8.02123,-3.15878 11.42857,-5.71429 0.7619,-0.57143 -0.52829,-2.06471 0,-2.85714 1.49422,-2.24133 3.80952,-3.80953 5.71429,-5.71429 0.95238,-0.95238 1.65246,-2.2548 2.85714,-2.85714 0.85183,-0.42592 2.00531,0.42592 2.85714,0 1.20468,-0.60234 1.65247,-2.25481 2.85714,-2.85714 0.85184,-0.42592 2.18371,0.67343 2.85715,0 0.67343,-0.67344 -0.67344,-2.18371 0,-2.85715 0.67343,-0.67343 2.0053,0.42592 2.85714,0 2.40935,-1.20467 3.15878,-4.86245 5.71429,-5.71428 1.80701,-0.60234 4.01061,0.85183 5.71428,0 2.40936,-1.20468 3.80953,-3.80953 5.71429,-5.71429 1.90476,-1.90476 4.22006,-3.47296 5.71428,-5.71428 0.52829,-0.79243 -0.67343,-2.18371 0,-2.85715 0.67344,-0.67343 2.85715,-0.95238 2.85715,0 0,0.95238 -3.53058,0.67344 -2.85715,0 0.17736,-8.04496 6.44184,-0.72755 8.57143,-2.85714 0.67344,-0.67343 -0.30117,-1.95363 0,-2.85714 2.18871,-6.56612 1.21697,-5.71429 5.71429,-5.71429"
       id="path4200"
       inkscape:connector-curvature="0" />
    <path
       style="fill:#000000;fill-opacity:1;fill-rule:evenodd;stroke:#000000;stroke-width:1px;stroke-linecap:butt;stroke-linejoin:miter;stroke-opacity:1"
       d="m 771.42857,463.79078 c 3.80953,-1.90477 7.77636,-3.52296 11.42857,-5.71429 5.46992,-3.28195 0.5046,-3.36173 5.71429,-8.57143 1.50585,-1.50584 3.69398,-2.18371 5.71428,-2.85714 0.90351,-0.30117 2.18371,0.67343 2.85715,0 0.67343,-0.67344 -0.42592,-2.00531 0,-2.85714 0.60234,-1.20468 1.90476,-1.90477 2.85714,-2.85715 0.95238,-0.95238 1.65247,-2.2548 2.85714,-2.85714 0.85184,-0.42592 2.00531,0.42592 2.85715,0 1.20467,-0.60234 1.73647,-2.11003 2.85714,-2.85714 1.77192,-1.18129 3.94236,-1.67586 5.71428,-2.85715 1.12067,-0.7471 1.65247,-2.2548 2.85715,-2.85714 1.68577,-0.84288 6.60619,0.65508 8.57143,0 1.90476,-0.95238 3.80952,-1.90476 5.71428,-2.85714 0,-0.95238 -0.67343,-2.18371 0,-2.85714 0.67344,-0.67344 2.00531,0.42591 2.85714,0 1.20468,-0.60234 1.65247,-2.25481 2.85715,-2.85715 0.85183,-0.42591 2.0053,0.42592 2.85714,0 4.37594,-2.18796 2.23433,-5.09147 5.71429,-8.57143 1.34687,-1.34687 4.12942,1.05658 5.71428,0 2.24133,-1.49421 3.80953,-3.80952 5.71429,-5.71428"
       id="path4202"
       inkscape:connector-curvature="0" />
    <path
       style="fill:#000000;fill-opacity:1;fill-rule:evenodd;stroke:#000000;stroke-width:1px;stroke-linecap:butt;stroke-linejoin:miter;stroke-opacity:1"
       d="M 748.57143,506.64792 862.85714,403.79078"
       id="path4204"
       inkscape:connector-curvature="0" />
    <path
       style="fill:#000000;fill-opacity:1;fill-rule:evenodd;stroke:#000000;stroke-width:1px;stroke-linecap:butt;stroke-linejoin:miter;stroke-opacity:1"
       d="m 800,452.3622 c -3.80952,1.90477 -7.47402,4.13247 -11.42857,5.71429 -0.88426,0.35371 -1.90476,0 -2.85714,0 -0.95239,0 -2.18371,0.67344 -2.85715,0 -2.102,-2.10201 2.29925,-5.15639 2.85715,-5.71429 0.95238,-0.95238 2.2548,-1.65246 2.85714,-2.85714 0.42592,-0.85183 -0.92395,-3.08813 0,-2.85714 4.13201,1.033 7.33327,6.88437 11.42857,5.71428 4.57869,-1.30819 5.59669,-7.71014 8.57143,-11.42857 1.78347,-2.22933 7.4766,-6.38177 8.57143,-8.57143 1.97051,-3.94102 -3.46016,-2.55563 2.85714,-5.71428 0.85184,-0.42592 2.18371,0.67343 2.85714,0 0.67344,-0.67344 -0.42591,-2.00531 0,-2.85714 0.60234,-1.20468 1.90476,-1.90477 2.85715,-2.85715 0.95238,-0.95238 1.65246,-2.2548 2.85714,-2.85714 0.85183,-0.42592 2.00531,0.42592 2.85714,0 2.18254,-1.09127 6.63672,-7.92652 8.57143,-8.57143 1.80702,-0.60234 3.90727,0.60234 5.71429,0 2.5555,-0.85183 3.30493,-4.50961 5.71428,-5.71428 0.85184,-0.42592 2.00531,0.42591 2.85714,0 1.20468,-0.60234 1.65247,-2.25481 2.85715,-2.85715 1.70367,-0.85183 4.36741,1.34687 5.71428,0 0.0205,-0.0205 3.52632,-8.57143 5.71429,-8.57143 3.46378,0 -0.71118,3.56833 -2.85714,5.71429 -1.90477,1.90476 -4.09805,3.55929 -5.71429,5.71429 -1.27775,1.70367 -2.18371,3.69398 -2.85714,5.71428 -0.30117,0.90351 0.79243,2.32886 0,2.85714 -19.50979,6.50327 -0.91854,-1.9386 -11.42857,8.57143 -6.93944,6.93944 -4.1955,-0.84962 -8.57143,5.71429 -1.18129,1.77192 -1.3513,4.20844 -2.85715,5.71428 -0.67343,0.67344 -1.90476,0 -2.85714,0 -1.90476,1.90477 -4.22007,3.47296 -5.71428,5.71429 -0.52829,0.79243 0.42591,2.00531 0,2.85714 -0.60234,1.20468 -1.90477,1.90477 -2.85715,2.85715 -0.95238,0.95238 -1.90476,1.90476 -2.85714,2.85714 -1.50418,1.50418 -7.80845,7.04547 -8.57143,8.57143 -0.42592,0.85183 0.92395,3.08813 0,2.85714 -4.13201,-1.033 -7.61905,-3.80952 -11.42857,-5.71429 z"
       id="path4206"
       inkscape:connector-curvature="0" />
    <path
       style="fill:#000000;fill-opacity:1;fill-rule:evenodd;stroke:#000000;stroke-width:1px;stroke-linecap:butt;stroke-linejoin:miter;stroke-opacity:1"
       d="m 748.57143,523.79078 c -4.76191,0 -9.52381,0 -14.28572,0 -0.95238,0 -2.0053,0.42591 -2.85714,0 -11.89074,-5.94538 3.05439,0.19724 -2.85714,-5.71429 -1.94093,-1.94093 -5.68217,2.92137 -8.57143,-2.85714 -0.43476,-0.86953 0,-7.28469 0,-8.57143 0,-5.71429 0,-11.42857 0,-17.14286"
       id="path4208"
       inkscape:connector-curvature="0" />
    <path
       style="fill:#000000;fill-opacity:1;fill-rule:evenodd;stroke:#000000;stroke-width:1px;stroke-linecap:butt;stroke-linejoin:miter;stroke-opacity:1"
       d="m 782.85714,469.50506 c 7.8273,2.68221 5.6433,-12.35729 11.42857,-14.28572 1.80702,-0.60233 3.90727,0.60234 5.71429,0 1.27775,-0.42591 1.65247,-2.2548 2.85714,-2.85714 0.85184,-0.42592 2.00531,0.42592 2.85715,0 5.26004,-2.63002 0.45424,-5.94141 5.71428,-8.57143 0.85184,-0.42591 2.85714,-0.95238 2.85714,0 0,0.95238 -3.80952,0 -2.85714,0 1.90476,0 4.01062,0.85184 5.71429,0 0.85183,-0.42591 -0.95238,-2.85714 0,-2.85714 0.95238,0 -0.67344,3.53058 0,2.85714 1.50584,-1.50584 1.67586,-3.94236 2.85714,-5.71428 0.74711,-1.12067 1.90476,-1.90476 2.85714,-2.85715"
       id="path4210"
       inkscape:connector-curvature="0" />
  </g>
</svg>
