<?xml version="1.0" standalone="no"?>
<!DOCTYPE svg PUBLIC "-//W3C//DTD SVG 20010904//EN"
 "http://www.w3.org/TR/2001/REC-SVG-20010904/DTD/svg10.dtd">
<svg version="1.0" xmlns="http://www.w3.org/2000/svg"
 width="700.000000pt" height="700.000000pt" viewBox="0 0 700.000000 700.000000"
 preserveAspectRatio="xMidYMid meet">
<metadata>
Created by potrace 1.11, written by Peter Selinger 2001-2013
</metadata>
<g transform="translate(0.000000,700.000000) scale(0.100000,-0.100000)"
fill="#000000" stroke="none">
<path d="M3205 6624 c-16 -7 -59 -27 -95 -43 -85 -38 -461 -207 -525 -236 -27
-12 -72 -32 -100 -44 -49 -21 -52 -25 -109 -139 -54 -107 -78 -148 -159 -266
-75 -110 -102 -209 -94 -350 7 -120 28 -221 102 -491 112 -411 125 -482 150
-770 13 -157 16 -184 30 -270 8 -49 17 -106 20 -125 2 -19 11 -82 19 -140 8
-58 18 -141 21 -185 3 -44 8 -96 10 -115 2 -19 7 -62 10 -95 l6 -60 -128 -29
c-365 -81 -519 -160 -1047 -539 -236 -169 -212 -148 -333 -288 -105 -121 -172
-216 -203 -286 -12 -26 -25 -57 -30 -68 -12 -27 -46 -148 -60 -215 -20 -97
-24 -151 -24 -355 -1 -224 8 -272 71 -403 58 -122 135 -193 301 -276 51 -25
92 -44 92 -42 0 3 19 -2 43 -10 36 -13 113 -30 218 -48 108 -18 537 -27 624
-13 276 44 639 214 927 434 99 75 204 131 427 227 l216 93 26 48 c18 33 43 58
79 81 29 18 54 35 57 38 3 2 -10 26 -28 53 l-33 48 60 -59 c48 -48 141 -120
222 -171 9 -5 39 -26 67 -46 27 -19 97 -64 155 -98 58 -35 115 -72 127 -83 12
-11 37 -21 57 -23 48 -5 106 -24 106 -36 0 -5 -10 -8 -21 -6 -42 4 -29 -21 26
-52 50 -28 63 -31 133 -30 140 2 149 1 176 -28 21 -23 35 -27 92 -30 57 -3 72
0 103 20 40 26 58 33 111 41 47 7 271 72 340 98 394 152 632 376 666 625 3 26
8 57 11 68 2 11 7 124 10 250 5 225 5 230 28 250 18 16 21 25 14 44 -15 38 -3
62 25 51 22 -8 49 0 46 14 0 4 10 16 24 27 19 15 26 30 26 53 0 38 30 72 47
55 9 -9 21 -6 46 10 19 11 43 21 54 21 11 0 28 9 38 20 16 17 17 27 8 64 -8
38 -7 45 9 55 11 7 26 28 34 48 8 19 24 37 35 40 10 3 19 10 19 15 0 6 -11 7
-27 3 l-28 -7 24 26 c16 17 35 26 56 26 35 0 67 20 110 68 17 18 87 93 158
164 l127 131 0 131 -1 131 -26 -30 c-25 -28 -31 -30 -95 -29 l-68 1 -47 -50
c-133 -141 -130 -138 -157 -131 -22 5 -35 -3 -91 -57 -54 -52 -65 -68 -65 -95
0 -28 -3 -32 -22 -29 -25 5 -108 -39 -108 -58 -1 -24 -47 -64 -111 -96 -35
-18 -68 -40 -73 -49 -7 -12 -20 17 -51 109 -121 360 -316 614 -552 719 -29 13
-53 26 -53 29 0 3 22 21 48 39 44 31 45 33 17 29 -16 -3 -43 -8 -60 -12 -20
-5 -27 -4 -20 3 6 5 120 89 255 187 135 98 247 180 250 182 6 6 -318 -4 -380
-12 -216 -27 -529 -115 -782 -220 -104 -44 -259 -125 -334 -176 -91 -62 -192
-164 -227 -226 -23 -43 -25 -54 -16 -86 13 -48 53 -85 107 -99 37 -9 59 -28
32 -28 -16 0 -167 -149 -234 -230 -84 -104 -126 -143 -342 -331 -87 -76 -162
-191 -170 -264 -19 -165 -25 -521 -10 -629 5 -33 17 -84 27 -114 11 -30 19
-58 18 -61 0 -3 -22 38 -50 92 -27 53 -51 97 -54 97 -3 0 -45 -23 -94 -50 -49
-28 -93 -50 -98 -50 -6 0 -6 21 -2 53 9 62 5 1287 -5 1337 -3 19 -15 62 -26
95 -23 71 -57 243 -65 335 -4 36 -8 76 -10 90 -2 14 -6 60 -10 103 -3 43 -8
86 -10 95 -1 9 -6 49 -10 87 -11 109 -19 168 -35 265 -5 30 -12 73 -15 95 -4
22 -8 47 -10 55 -2 8 -7 47 -10 85 -26 302 -42 406 -91 599 -14 55 -27 107
-29 115 -2 9 -18 66 -35 126 -54 190 -88 352 -97 460 -10 130 23 223 132 370
29 39 86 139 128 223 42 83 75 152 74 151 -1 0 -15 -7 -32 -15z m1850 -2624
c-3 -5 -12 -10 -18 -10 -7 0 -6 4 3 10 19 12 23 12 15 0z m-154 -707 c81 -47
157 -118 226 -211 70 -94 140 -222 121 -222 -8 0 -25 -10 -37 -21 -22 -21 -25
-21 -51 -5 -34 19 -86 21 -93 2 -10 -24 1 -124 17 -154 19 -38 46 -49 63 -26
7 9 20 40 29 68 9 28 18 53 20 54 1 2 24 -12 50 -32 26 -20 50 -36 54 -36 4 0
12 -11 18 -25 10 -21 7 -30 -22 -68 -36 -47 -51 -81 -42 -96 3 -4 24 -5 46 -1
37 7 41 5 46 -17 4 -13 5 -25 3 -27 -2 -1 -170 -67 -374 -145 -203 -79 -383
-149 -400 -156 -81 -36 -95 -30 -131 51 -40 92 -55 191 -54 378 0 94 3 189 5
211 8 79 16 129 21 137 3 5 7 19 10 33 8 43 62 112 156 197 50 46 114 104 141
129 49 45 51 46 83 33 17 -7 60 -30 95 -51z m1949 -56 c0 -1 -22 -25 -50 -52
-27 -27 -50 -43 -50 -36 0 15 75 91 90 91 5 0 10 -1 10 -3z m-180 -185 c0 -10
-44 -32 -62 -32 -6 0 -3 9 7 20 18 20 55 28 55 12z m-430 -66 c0 -2 -8 -10
-17 -17 -16 -13 -17 -12 -4 4 13 16 21 21 21 13z m-75 -70 c-29 -31 -35 -34
-35 -18 0 17 58 67 67 58 2 -2 -13 -20 -32 -40z m-3583 -133 c6 -107 1 -1117
-6 -1195 -7 -71 -10 -95 -20 -168 -7 -44 -26 -114 -43 -153 l-17 -39 -180 6
c-225 7 -263 11 -414 42 -138 28 -316 137 -375 229 -30 48 -63 142 -71 205 -7
53 -7 316 0 380 14 129 43 245 82 330 9 19 17 37 17 40 6 33 89 152 170 242
49 54 52 56 145 78 52 12 116 22 141 21 64 0 215 -27 296 -53 38 -12 73 -22
78 -23 6 -2 48 24 95 56 47 32 88 58 92 58 3 1 8 -25 10 -56z"/>
<path d="M4484 2961 c-9 -9 -3 -19 14 -23 10 -3 105 -55 210 -116 105 -60 193
-108 196 -105 3 3 1 13 -4 22 -5 9 -27 54 -49 101 -63 135 -46 125 -216 125
-81 0 -149 -2 -151 -4z"/>
</g>
</svg>
